{"asset":{"version":"2.0","generator":"ChatGPT Cisco Switch Builder"},"scene":0,"scenes":[{"nodes":[0,1,2,3,4,5,6,7,8,9,10,11,12,13,14,15,16,17,18,19,20,21,22,23,24,25,26,27,28,29,30,31,32,33,34,35,36,37,38,39,40,41,42,43,44,45,46,47,48,49,50,51,52,53,54,55,56,57,58,59,60,61,62,63,64,65,66,67,68,69,70,71,72,73,74,75,76]}],"nodes":[{"name":"Chassis","mesh":0},{"name":"TrimStrip","mesh":3,"translation":[0,0.015,0.125]},{"name":"LogoPlate","mesh":5,"translation":[-0.17,0.01,0.127]},{"name":"Port01Shell","mesh":1,"translation":[-0.16499999999999998,0.006,0.11]},{"name":"Port01Inner","mesh":2,"translation":[-0.16499999999999998,0.006,0.117]},{"name":"Port01LED","mesh":4,"translation":[-0.16499999999999998,0.016,0.13]},{"name":"Port02Shell","mesh":1,"translation":[-0.13499999999999998,0.006,0.11]},{"name":"Port02Inner","mesh":2,"translation":[-0.13499999999999998,0.006,0.117]},{"name":"Port02LED","mesh":4,"translation":[-0.13499999999999998,0.016,0.13]},{"name":"Port03Shell","mesh":1,"translation":[-0.10499999999999998,0.006,0.11]},{"name":"Port03Inner","mesh":2,"translation":[-0.10499999999999998,0.006,0.117]},{"name":"Port03LED","mesh":4,"translation":[-0.10499999999999998,0.016,0.13]},{"name":"Port04Shell","mesh":1,"translation":[-0.07499999999999998,0.006,0.11]},{"name":"Port04Inner","mesh":2,"translation":[-0.07499999999999998,0.006,0.117]},{"name":"Port04LED","mesh":4,"translation":[-0.07499999999999998,0.016,0.13]},{"name":"Port05Shell","mesh":1,"translation":[-0.044999999999999984,0.006,0.11]},{"name":"Port05Inner","mesh":2,"translation":[-0.044999999999999984,0.006,0.117]},{"name":"Port05LED","mesh":4,"translation":[-0.044999999999999984,0.016,0.13]},{"name":"Port06Shell","mesh":1,"translation":[-0.014999999999999986,0.006,0.11]},{"name":"Port06Inner","mesh":2,"translation":[-0.014999999999999986,0.006,0.117]},{"name":"Port06LED","mesh":4,"translation":[-0.014999999999999986,0.016,0.13]},{"name":"Port07Shell","mesh":1,"translation":[0.015000000000000013,0.006,0.11]},{"name":"Port07Inner","mesh":2,"translation":[0.015000000000000013,0.006,0.117]},{"name":"Port07LED","mesh":4,"translation":[0.015000000000000013,0.016,0.13]},{"name":"Port08Shell","mesh":1,"translation":[0.04500000000000001,0.006,0.11]},{"name":"Port08Inner","mesh":2,"translation":[0.04500000000000001,0.006,0.117]},{"name":"Port08LED","mesh":4,"translation":[0.04500000000000001,0.016,0.13]},{"name":"Port09Shell","mesh":1,"translation":[0.07500000000000001,0.006,0.11]},{"name":"Port09Inner","mesh":2,"translation":[0.07500000000000001,0.006,0.117]},{"name":"Port09LED","mesh":4,"translation":[0.07500000000000001,0.016,0.13]},{"name":"Port10Shell","mesh":1,"translation":[0.10500000000000004,0.006,0.11]},{"name":"Port10Inner","mesh":2,"translation":[0.10500000000000004,0.006,0.117]},{"name":"Port10LED","mesh":4,"translation":[0.10500000000000004,0.016,0.13]},{"name":"Port11Shell","mesh":1,"translation":[0.135,0.006,0.11]},{"name":"Port11Inner","mesh":2,"translation":[0.135,0.006,0.117]},{"name":"Port11LED","mesh":4,"translation":[0.135,0.016,0.13]},{"name":"Port12Shell","mesh":1,"translation":[0.16499999999999998,0.006,0.11]},{"name":"Port12Inner","mesh":2,"translation":[0.16499999999999998,0.006,0.117]},{"name":"Port12LED","mesh":4,"translation":[0.16499999999999998,0.016,0.13]},{"name":"Port13Shell","mesh":1,"translation":[-0.16499999999999998,-0.006,0.11]},{"name":"Port13Inner","mesh":2,"translation":[-0.16499999999999998,-0.006,0.117]},{"name":"Port13LED","mesh":4,"translation":[-0.16499999999999998,0.004,0.13]},{"name":"Port14Shell","mesh":1,"translation":[-0.13499999999999998,-0.006,0.11]},{"name":"Port14Inner","mesh":2,"translation":[-0.13499999999999998,-0.006,0.117]},{"name":"Port14LED","mesh":4,"translation":[-0.13499999999999998,0.004,0.13]},{"name":"Port15Shell","mesh":1,"translation":[-0.10499999999999998,-0.006,0.11]},{"name":"Port15Inner","mesh":2,"translation":[-0.10499999999999998,-0.006,0.117]},{"name":"Port15LED","mesh":4,"translation":[-0.10499999999999998,0.004,0.13]},{"name":"Port16Shell","mesh":1,"translation":[-0.07499999999999998,-0.006,0.11]},{"name":"Port16Inner","mesh":2,"translation":[-0.07499999999999998,-0.006,0.117]},{"name":"Port16LED","mesh":4,"translation":[-0.07499999999999998,0.004,0.13]},{"name":"Port17Shell","mesh":1,"translation":[-0.044999999999999984,-0.006,0.11]},{"name":"Port17Inner","mesh":2,"translation":[-0.044999999999999984,-0.006,0.117]},{"name":"Port17LED","mesh":4,"translation":[-0.044999999999999984,0.004,0.13]},{"name":"Port18Shell","mesh":1,"translation":[-0.014999999999999986,-0.006,0.11]},{"name":"Port18Inner","mesh":2,"translation":[-0.014999999999999986,-0.006,0.117]},{"name":"Port18LED","mesh":4,"translation":[-0.014999999999999986,0.004,0.13]},{"name":"Port19Shell","mesh":1,"translation":[0.015000000000000013,-0.006,0.11]},{"name":"Port19Inner","mesh":2,"translation":[0.015000000000000013,-0.006,0.117]},{"name":"Port19LED","mesh":4,"translation":[0.015000000000000013,0.004,0.13]},{"name":"Port20Shell","mesh":1,"translation":[0.04500000000000001,-0.006,0.11]},{"name":"Port20Inner","mesh":2,"translation":[0.04500000000000001,-0.006,0.117]},{"name":"Port20LED","mesh":4,"translation":[0.04500000000000001,0.004,0.13]},{"name":"Port21Shell","mesh":1,"translation":[0.07500000000000001,-0.006,0.11]},{"name":"Port21Inner","mesh":2,"translation":[0.07500000000000001,-0.006,0.117]},{"name":"Port21LED","mesh":4,"translation":[0.07500000000000001,0.004,0.13]},{"name":"Port22Shell","mesh":1,"translation":[0.10500000000000004,-0.006,0.11]},{"name":"Port22Inner","mesh":2,"translation":[0.10500000000000004,-0.006,0.117]},{"name":"Port22LED","mesh":4,"translation":[0.10500000000000004,0.004,0.13]},{"name":"Port23Shell","mesh":1,"translation":[0.135,-0.006,0.11]},{"name":"Port23Inner","mesh":2,"translation":[0.135,-0.006,0.117]},{"name":"Port23LED","mesh":4,"translation":[0.135,0.004,0.13]},{"name":"Port24Shell","mesh":1,"translation":[0.16499999999999998,-0.006,0.11]},{"name":"Port24Inner","mesh":2,"translation":[0.16499999999999998,-0.006,0.117]},{"name":"Port24LED","mesh":4,"translation":[0.16499999999999998,0.004,0.13]},{"name":"SysLED","mesh":4,"translation":[-0.2,0.01,0.127]},{"name":"RPSLED","mesh":4,"translation":[-0.2,-0.005,0.127]}],"materials":[{"pbrMetallicRoughness":{"baseColorFactor":[0.05,0.08,0.15,1.0],"metallicFactor":0.2,"roughnessFactor":0.8},"name":"Chassis"},{"pbrMetallicRoughness":{"baseColorFactor":[0.02,0.02,0.02,1.0],"metallicFactor":0.1,"roughnessFactor":0.9},"name":"PortShell"},{"pbrMetallicRoughness":{"baseColorFactor":[0.12,0.12,0.12,1.0],"metallicFactor":0.0,"roughnessFactor":1.0},"name":"PortInner"},{"pbrMetallicRoughness":{"baseColorFactor":[0.2,0.25,0.35,1.0],"metallicFactor":0.3,"roughnessFactor":0.5},"name":"Trim"},{"pbrMetallicRoughness":{"baseColorFactor":[0.1,0.8,0.1,1.0],"metallicFactor":0.0,"roughnessFactor":0.4},"emissiveFactor":[0.1,0.8,0.1],"name":"LEDGreen"},{"pbrMetallicRoughness":{"baseColorFactor":[0.9,0.6,0.05,1.0],"metallicFactor":0.0,"roughnessFactor":0.4},"emissiveFactor":[0.9,0.6,0.05],"name":"LEDAmber"},{"pbrMetallicRoughness":{"baseColorFactor":[0.85,0.85,0.9,1.0],"metallicFactor":0.0,"roughnessFactor":0.7},"name":"LogoPlate"}],"meshes":[{"name":"Chassis","primitives":[{"attributes":{"POSITION":0,"NORMAL":1},"indices":2,"material":0}]},{"name":"PortShell","primitives":[{"attributes":{"POSITION":3,"NORMAL":4},"indices":5,"material":1}]},{"name":"PortInner","primitives":[{"attributes":{"POSITION":6,"NORMAL":7},"indices":8,"material":2}]},{"name":"Trim","primitives":[{"attributes":{"POSITION":9,"NORMAL":10},"indices":11,"material":3}]},{"name":"LEDGreen","primitives":[{"attributes":{"POSITION":12,"NORMAL":13},"indices":14,"material":4}]},{"name":"LogoPlate","primitives":[{"attributes":{"POSITION":15,"NORMAL":16},"indices":17,"material":6}]}],"buffers":[{"byteLength":3888,"uri":"data:application/octet-stream;base64,"}],"bufferViews":[{"buffer":0,"byteOffset":0,"byteLength":288,"target":34962},{"buffer":0,"byteOffset":288,"byteLength":288,"target":34962},{"buffer":0,"byteOffset":576,"byteLength":72,"target":34963},{"buffer":0,"byteOffset":648,"byteLength":288,"target":34962},{"buffer":0,"byteOffset":936,"byteLength":288,"target":34962},{"buffer":0,"byteOffset":1224,"byteLength":72,"target":34963},{"buffer":0,"byteOffset":1296,"byteLength":288,"target":34962},{"buffer":0,"byteOffset":1584,"byteLength":288,"target":34962},{"buffer":0,"byteOffset":1872,"byteLength":72,"target":34963},{"buffer":0,"byteOffset":1944,"byteLength":288,"target":34962},{"buffer":0,"byteOffset":2232,"byteLength":288,"target":34962},{"buffer":0,"byteOffset":2520,"byteLength":72,"target":34963},{"buffer":0,"byteOffset":2592,"byteLength":288,"target":34962},{"buffer":0,"byteOffset":2880,"byteLength":288,"target":34962},{"buffer":0,"byteOffset":3168,"byteLength":72,"target":34963},{"buffer":0,"byteOffset":3240,"byteLength":288,"target":34962},{"buffer":0,"byteOffset":3528,"byteLength":288,"target":34962},{"buffer":0,"byteOffset":3816,"byteLength":72,"target":34963}],"accessors":[{"bufferView":0,"componentType":5126,"count":24,"type":"VEC3","min":[-0.22,-0.022,-0.125],"max":[0.22,0.022,0.125]},{"bufferView":1,"componentType":5126,"count":24,"type":"VEC3","min":[-1,-1,-1],"max":[1,1,1]},{"bufferView":2,"componentType":5123,"count":36,"type":"SCALAR","max":[23],"min":[0]},{"bufferView":3,"componentType":5126,"count":24,"type":"VEC3","min":[-0.007,-0.006,-0.015],"max":[0.007,0.006,0.015]},{"bufferView":4,"componentType":5126,"count":24,"type":"VEC3","min":[-1,-1,-1],"max":[1,1,1]},{"bufferView":5,"componentType":5123,"count":36,"type":"SCALAR","max":[23],"min":[0]},{"bufferView":6,"componentType":5126,"count":24,"type":"VEC3","min":[-0.0055,-0.005,-0.0075],"max":[0.0055,0.005,0.0075]},{"bufferView":7,"componentType":5126,"count":24,"type":"VEC3","min":[-1,-1,-1],"max":[1,1,1]},{"bufferView":8,"componentType":5123,"count":36,"type":"SCALAR","max":[23],"min":[0]},{"bufferView":9,"componentType":5126,"count":24,"type":"VEC3","min":[-0.22,-0.005,-0.0025],"max":[0.22,0.005,0.0025]},{"bufferView":10,"componentType":5126,"count":24,"type":"VEC3","min":[-1,-1,-1],"max":[1,1,1]},{"bufferView":11,"componentType":5123,"count":36,"type":"SCALAR","max":[23],"min":[0]},{"bufferView":12,"componentType":5126,"count":24,"type":"VEC3","min":[-0.002,-0.002,-0.001],"max":[0.002,0.002,0.001]},{"bufferView":13,"componentType":5126,"count":24,"type":"VEC3","min":[-1,-1,-1],"max":[1,1,1]},{"bufferView":14,"componentType":5123,"count":36,"type":"SCALAR","max":[23],"min":[0]},{"bufferView":15,"componentType":5126,"count":24,"type":"VEC3","min":[-0.03,-0.01,-0.001],"max":[0.03,0.01,0.001]},{"bufferView":16,"componentType":5126,"count":24,"type":"VEC3","min":[-1,-1,-1],"max":[1,1,1]},{"bufferView":17,"componentType":5123,"count":36,"type":"SCALAR","max":[23],"min":[0]}]}